<svg width="1728" height="1117" viewBox="0 0 1728 1117" fill="none" xmlns="http://www.w3.org/2000/svg">
<rect width="1728" height="1117" fill="#0D0D0D"/>
<g clip-path="url(#clip0_2_2)">
<path d="M146.632 914.198L0 1079.97V1117H1819L1718.09 963.931L1648.92 1046.82L1629.55 1001.23L1593.59 1079.97L1571.45 1052.34L1549.32 1079.97L1510.59 803.681L1474.62 765L1405.46 789.866L1327.99 1016.43L1280.96 872.754L1197.96 1016.43L1148.16 950.116L1087.29 1016.43L1020.89 886.569L994.609 922.487L932.36 847.888L888.093 1016.43L716.561 789.866L663.995 1024.72L605.895 1049.58L533.963 789.866L492.463 1079.97L406.697 789.866L337.531 955.642L265.598 784.341L190.899 1079.97L146.632 914.198Z" fill="url(#paint0_linear_2_2)" fill-opacity="0.5" stroke="#1ED760" stroke-width="2"/>
</g>
<defs>
<linearGradient id="paint0_linear_2_2" x1="906.077" y1="765" x2="906.077" y2="1163.78" gradientUnits="userSpaceOnUse">
<stop stop-color="#1ED760"/>
<stop offset="1" stop-color="#107132" stop-opacity="0"/>
</linearGradient>
<clipPath id="clip0_2_2">
<rect width="1728" height="740" fill="white" transform="translate(0 377)"/>
</clipPath>
</defs>
</svg>
