<svg width="18" height="18" viewBox="0 0 18 18" fill="none" xmlns="http://www.w3.org/2000/svg"><mask id="a" maskUnits="userSpaceOnUse" x="0" y="0" width="18" height="18" fill="#000"><path fill="#fff" d="M0 0h18v18H0z"/><path d="M9 17a.283.283 0 0 1-.208-.083.523.523 0 0 1-.125-.209 9.676 9.676 0 0 0-1.042-2.52c-.458-.82-1-1.55-1.625-2.188a9.925 9.925 0 0 0-2.188-1.646 10.112 10.112 0 0 0-2.52-1.02.523.523 0 0 1-.209-.126A.283.283 0 0 1 1 9c0-.083.028-.153.083-.208a.523.523 0 0 1 .209-.125 10.113 10.113 0 0 0 2.52-1.021A10.623 10.623 0 0 0 6 6a9.488 9.488 0 0 0 1.646-2.167c.458-.82.798-1.666 1.02-2.541a.523.523 0 0 1 .126-.209A.283.283 0 0 1 9 1c.083 0 .153.028.208.083a.523.523 0 0 1 .125.209 10.47 10.47 0 0 0 1.021 2.541A10.133 10.133 0 0 0 12 6a10.134 10.134 0 0 0 2.167 1.646c.82.458 1.666.798 2.541 1.02.084.028.153.07.209.126A.283.283 0 0 1 17 9a.283.283 0 0 1-.083.208.523.523 0 0 1-.209.125 10.47 10.47 0 0 0-2.541 1.021A9.486 9.486 0 0 0 12 12a10.62 10.62 0 0 0-1.646 2.188 10.112 10.112 0 0 0-1.02 2.52.523.523 0 0 1-.126.209A.283.283 0 0 1 9 17z"/></mask><path d="M8.792 16.917l.707-.707-.707.707zm-.125-.209l-.97.247.01.035.011.035.949-.317zm-1.042-2.52l-.873.488.005.008.005.01.863-.507zM6 12l.715-.7-.008-.007L6 12zm-2.188-1.646l-.494.87.006.003.489-.873zm-2.52-1.02l-.317.948.035.012.036.009.246-.97zm-.209-.126l.707-.707-.707.707zm0-.416l-.707-.707.707.707zm.209-.125l-.246-.97-.036.01-.035.011.317.949zm2.52-1.021l-.494-.87.494.87zM6 6l-.7-.715L6 6zm2.667-4.708L7.718.975l-.012.035-.009.036.97.246zm.125-.209l.707.707-.707-.707zm.541.209l.97-.246-.01-.036-.011-.035-.949.317zm1.021 2.541l-.873.489.004.006.87-.495zm3.813 3.813l-.495.869.006.004.489-.873zm2.541 1.02l.317-.948-.035-.012-.035-.009-.247.97zm.209.542l-.707-.707.707.707zm-.209.125l.247.97.035-.01.035-.011-.317-.949zM12 12l.715.7L12 12zm-1.646 2.188l.87.494-.87-.495zm-1.02 2.52l.948.317.012-.035.009-.035-.97-.247zm-.126.209l.707.707-.707-.707zM9 17v-1a.722.722 0 0 1 .499.21l-.707.707-.707.707c.255.255.584.376.915.376v-1zm-.208-.083l.707-.707a.48.48 0 0 1 .116.182l-.948.316-.949.317c.071.213.189.421.367.599l.707-.707zm-.125-.209l.969-.246c-.246-.969-.63-1.896-1.148-2.78l-.863.505-.863.506c.427.728.737 1.48.935 2.261l.97-.246zm-1.042-2.52l.873-.489a11.296 11.296 0 0 0-1.783-2.398L6 12l-.715.7c.56.572 1.05 1.23 1.467 1.976l.873-.489zM6 12l.707-.707A10.927 10.927 0 0 0 4.301 9.48l-.489.873-.488.873a8.925 8.925 0 0 1 1.969 1.48L6 12zm-2.188-1.646l.495-.869a11.113 11.113 0 0 0-2.77-1.12l-.245.968-.246.97a9.11 9.11 0 0 1 2.272.92l.494-.869zm-2.52-1.02l.316-.95a.48.48 0 0 1 .182.117l-.707.707-.707.707c.178.178.386.296.6.367l.316-.949zm-.209-.126l.707-.707A.723.723 0 0 1 2 9H0c0 .33.12.66.376.915l.707-.707zM1 9h1a.723.723 0 0 1-.21.499l-.707-.707-.707-.707A1.282 1.282 0 0 0 0 9h1zm.083-.208l.707.707a.48.48 0 0 1-.182.116l-.316-.948-.317-.949a1.522 1.522 0 0 0-.599.367l.707.707zm.209-.125l.246.969c.964-.245 1.888-.62 2.769-1.121l-.495-.87-.494-.868a9.113 9.113 0 0 1-2.272.92l.246.97zm2.52-1.021l.495.869c.88-.5 1.677-1.1 2.392-1.8L6 6l-.7-.715a9.623 9.623 0 0 1-1.982 1.492l.494.869zM6 6l.7.715A10.487 10.487 0 0 0 8.518 4.32l-.873-.488-.873-.488a8.49 8.49 0 0 1-1.472 1.94L6 6zm1.646-2.167l.873.488c.499-.892.872-1.82 1.117-2.783l-.97-.246-.969-.246a9.472 9.472 0 0 1-.924 2.3l.873.487zm1.02-2.541l.95.316a.48.48 0 0 1-.117.182l-.707-.707-.707-.707a1.522 1.522 0 0 0-.367.6l.949.316zm.126-.209l.707.707A.723.723 0 0 1 9 2V0c-.33 0-.66.12-.915.376l.707.707zM9 1v1a.723.723 0 0 1-.499-.21l.707-.707.707-.707A1.282 1.282 0 0 0 9 0v1zm.208.083l-.707.707a.48.48 0 0 1-.116-.182l.948-.316.949-.317a1.521 1.521 0 0 0-.367-.599l-.707.707zm.125.209l-.969.246c.245.963.618 1.891 1.117 2.783l.873-.488.873-.488a9.475 9.475 0 0 1-.924-2.3l-.97.247zm1.021 2.541l-.869.495a11.135 11.135 0 0 0 1.808 2.38L12 6l.707-.707a9.137 9.137 0 0 1-1.484-1.954l-.869.494zM12 6l-.707.707a11.135 11.135 0 0 0 2.38 1.808l.494-.87.494-.868a9.135 9.135 0 0 1-1.954-1.484L12 6zm2.167 1.646l-.489.873c.893.499 1.821.872 2.784 1.117l.246-.97.247-.969a9.472 9.472 0 0 1-2.3-.924l-.488.873zm2.541 1.02l-.316.95a.48.48 0 0 1-.182-.117l.707-.707.707-.707a1.522 1.522 0 0 0-.6-.367l-.316.949zm.209.126l-.707.707A.722.722 0 0 1 16 9h2c0-.33-.12-.66-.376-.915l-.707.707zM17 9h-1a.722.722 0 0 1 .21-.499l.707.707.707.707C17.879 9.66 18 9.331 18 9h-1zm-.083.208l-.707-.707a.48.48 0 0 1 .182-.116l.316.948.317.949c.213-.071.421-.189.599-.367l-.707-.707zm-.209.125l-.246-.969c-.963.245-1.891.618-2.784 1.117l.489.873.488.873a9.474 9.474 0 0 1 2.3-.924l-.247-.97zm-2.541 1.021l-.489-.873a10.486 10.486 0 0 0-2.393 1.82L12 12l.715.7a8.489 8.489 0 0 1 1.94-1.473l-.488-.873zM12 12l-.715-.7c-.7.716-1.3 1.514-1.8 2.393l.87.495.868.494a9.622 9.622 0 0 1 1.492-1.982L12 12zm-1.646 2.188l-.869-.495a11.113 11.113 0 0 0-1.12 2.77l.968.245.97.247a9.11 9.11 0 0 1 .92-2.273l-.869-.495zm-1.02 2.52l-.95-.316a.48.48 0 0 1 .117-.182l.707.707.707.707c.178-.178.296-.386.367-.6l-.949-.316zm-.126.209l-.707-.707A.722.722 0 0 1 9 16v2c.33 0 .66-.12.915-.376l-.707-.707z" fill="#8C8C8C" mask="url(#a)"/></svg>