<svg width="2125" height="285" viewBox="0 0 2125 285" fill="none" xmlns="http://www.w3.org/2000/svg">
<path d="M0 280V0H112.4C143.333 0 166.4 6.66667 181.6 20C197.067 33.0667 204.8 50.2667 204.8 71.6C204.8 87.0667 201.333 99.3333 194.4 108.4C187.733 117.467 179.067 124.8 168.4 130.4C175.867 133.6 183.333 138.8 190.8 146C198.267 152.933 204.533 161.2 209.6 170.8C214.933 180.4 217.6 190.667 217.6 201.6C217.6 216 213.733 229.2 206 241.2C198.533 252.933 187.733 262.4 173.6 269.6C159.467 276.533 142.8 280 123.6 280H0ZM63.2 226H122.8C134.533 226 142.533 223.2 146.8 217.6C151.333 211.733 153.6 204 153.6 194.4C153.6 185.067 151.333 177.6 146.8 172C142.533 166.133 134.267 163.2 122 163.2H63.2V226ZM63.2 108.4H106.8C119.333 108.4 128 106.4 132.8 102.4C137.6 98.1333 140 90.9333 140 80.8C140 71.7333 137.733 65.0667 133.2 60.8C128.667 56.2667 119.733 54 106.4 54H63.2V108.4Z" fill="#D9D9D9"/>
<path d="M335.369 284.8C316.169 284.8 298.569 280.8 282.569 272.8C266.835 264.533 254.169 252.667 244.569 237.2C235.235 221.733 230.569 202.933 230.569 180.8C230.569 159.733 235.102 141.467 244.169 126C253.502 110.533 266.169 98.5333 282.169 90C298.169 81.2 316.169 76.8 336.169 76.8C357.502 76.8 376.035 81.3333 391.769 90.4C407.502 99.2 419.769 111.467 428.569 127.2C437.369 142.667 441.769 160.533 441.769 180.8C441.769 201.867 437.102 220.267 427.769 236C418.435 251.467 405.769 263.467 389.769 272C373.769 280.533 355.635 284.8 335.369 284.8ZM335.769 231.2C344.569 231.2 352.169 229.067 358.569 224.8C364.969 220.533 369.902 214.533 373.369 206.8C377.102 199.067 378.969 190.267 378.969 180.4C378.969 169.467 376.969 160.4 372.969 153.2C369.235 145.733 364.035 140.133 357.369 136.4C350.969 132.667 343.769 130.8 335.769 130.8C327.502 130.8 320.035 132.8 313.369 136.8C306.969 140.8 301.902 146.533 298.169 154C294.435 161.467 292.569 170.4 292.569 180.8C292.569 190.667 294.302 199.467 297.769 207.2C301.502 214.667 306.569 220.533 312.969 224.8C319.369 229.067 326.969 231.2 335.769 231.2Z" fill="#D9D9D9"/>
<path d="M457.272 280V0H518.872V280H457.272Z" fill="#D9D9D9"/>
<path d="M623.591 280C600.124 280 582.391 274.267 570.391 262.8C558.657 251.333 552.791 233.733 552.791 210V132.4H531.991V81.6H552.791V32.4H614.391V81.6H654.791V132.4H614.391V210.8C614.391 217.467 615.724 222 618.391 224.4C621.324 226.533 626.124 227.6 632.791 227.6H654.791V280H623.591Z" fill="#D9D9D9"/>
<path d="M765.234 280V0H876.434C895.634 0 912.968 3.46667 928.434 10.4C943.901 17.3333 956.034 27.3333 964.834 40.4C973.901 53.4667 978.434 69.0667 978.434 87.2C978.434 105.067 974.034 120.667 965.234 134C956.701 147.067 944.701 157.2 929.234 164.4C914.034 171.6 896.434 175.2 876.434 175.2H828.434V280H765.234ZM828.434 121.2H874.834C889.768 121.2 900.034 117.867 905.634 111.2C911.501 104.267 914.434 96.2667 914.434 87.2C914.434 78.6667 911.501 71.0667 905.634 64.4C900.034 57.4667 889.768 54 874.834 54H828.434V121.2Z" fill="#D9D9D9"/>
<path d="M994.753 280V0H1056.35V105.6C1063.55 95.4667 1072.09 88.1333 1081.95 83.6C1091.82 79.0667 1102.89 76.8 1115.15 76.8C1139.95 76.8 1158.75 84.8 1171.55 100.8C1184.35 116.533 1190.75 137.067 1190.75 162.4V280H1129.55V170C1129.55 157.467 1126.49 147.467 1120.35 140C1114.22 132.267 1105.02 128.4 1092.75 128.4C1080.75 128.4 1071.69 132.4 1065.55 140.4C1059.42 148.133 1056.35 158 1056.35 170V280H994.753Z" fill="#D9D9D9"/>
<path d="M1271.95 284.8C1260.48 284.8 1249.82 282.533 1239.95 278C1230.08 273.2 1222.08 266.4 1215.95 257.6C1210.08 248.533 1207.15 237.6 1207.15 224.8C1207.15 210.133 1211.02 198.267 1218.75 189.2C1226.48 179.867 1236.75 173.067 1249.55 168.8C1262.62 164.533 1276.88 162.4 1292.35 162.4H1337.15C1337.15 155.467 1335.95 149.333 1333.55 144C1331.15 138.667 1327.55 134.533 1322.75 131.6C1317.95 128.4 1311.95 126.8 1304.75 126.8C1297.28 126.8 1290.48 128.4 1284.35 131.6C1278.22 134.8 1274.35 140.267 1272.75 148H1213.15C1214.22 133.333 1219.15 120.8 1227.95 110.4C1236.75 99.7333 1247.95 91.4667 1261.55 85.6C1275.42 79.7333 1290.22 76.8 1305.95 76.8C1324.35 76.8 1340.48 80.2667 1354.35 87.2C1368.48 93.8667 1379.42 103.6 1387.15 116.4C1394.88 128.933 1398.75 144.133 1398.75 162V212.8C1398.75 218.667 1399.55 223.2 1401.15 226.4C1403.02 229.6 1407.68 231.2 1415.15 231.2V280C1402.35 280 1391.68 279.2 1383.15 277.6C1374.62 276 1367.42 273.067 1361.55 268.8C1355.68 264.267 1350.35 257.733 1345.55 249.2C1336.75 260.933 1326.35 269.867 1314.35 276C1302.35 281.867 1288.22 284.8 1271.95 284.8ZM1293.55 237.6C1301.28 237.6 1308.35 236 1314.75 232.8C1321.42 229.333 1326.75 224.533 1330.75 218.4C1334.75 212.267 1336.75 205.333 1336.75 197.6V195.2H1298.75C1293.42 195.2 1288.48 196 1283.95 197.6C1279.42 198.933 1275.82 201.2 1273.15 204.4C1270.48 207.333 1269.15 211.467 1269.15 216.8C1269.15 224.533 1271.68 230 1276.75 233.2C1281.82 236.133 1287.42 237.6 1293.55 237.6Z" fill="#D9D9D9"/>
<path d="M1430.69 280V81.6H1492.29V112.4C1499.22 102.267 1508.02 93.8667 1518.69 87.2C1529.36 80.2667 1541.62 76.8 1555.49 76.8V142H1538.29C1522.82 142 1511.22 145.467 1503.49 152.4C1496.02 159.333 1492.29 170.8 1492.29 186.8V280H1430.69Z" fill="#D9D9D9"/>
<path d="M1570.14 280V81.6H1631.74V104C1638.68 95.2 1646.94 88.5333 1656.54 84C1666.41 79.2 1677.08 76.8 1688.54 76.8C1701.08 76.8 1713.48 79.8667 1725.74 86C1738.01 92.1333 1747.74 101.6 1754.94 114.4C1761.34 104.267 1770.14 95.4667 1781.34 88C1792.54 80.5333 1805.61 76.8 1820.54 76.8C1836.54 76.8 1850.54 80 1862.54 86.4C1874.54 92.8 1883.74 102.4 1890.14 115.2C1896.81 127.733 1900.14 143.333 1900.14 162V280H1838.94V170C1838.94 157.467 1835.88 147.733 1829.74 140.8C1823.61 133.6 1814.54 130 1802.54 130C1790.28 130 1781.08 133.6 1774.94 140.8C1769.08 148 1766.14 157.733 1766.14 170V280H1704.54V170C1704.54 158 1701.48 148.4 1695.34 141.2C1689.48 133.733 1680.41 130 1668.14 130C1656.14 130 1647.08 133.6 1640.94 140.8C1634.81 147.733 1631.74 157.467 1631.74 170V280H1570.14Z" fill="#D9D9D9"/>
<path d="M1981.32 284.8C1969.86 284.8 1959.19 282.533 1949.32 278C1939.46 273.2 1931.46 266.4 1925.32 257.6C1919.46 248.533 1916.53 237.6 1916.53 224.8C1916.53 210.133 1920.39 198.267 1928.12 189.2C1935.86 179.867 1946.13 173.067 1958.93 168.8C1971.99 164.533 1986.26 162.4 2001.72 162.4H2046.53C2046.53 155.467 2045.33 149.333 2042.93 144C2040.53 138.667 2036.93 134.533 2032.12 131.6C2027.32 128.4 2021.32 126.8 2014.12 126.8C2006.66 126.8 1999.86 128.4 1993.72 131.6C1987.59 134.8 1983.72 140.267 1982.12 148H1922.53C1923.59 133.333 1928.52 120.8 1937.32 110.4C1946.12 99.7333 1957.33 91.4667 1970.93 85.6C1984.79 79.7333 1999.59 76.8 2015.32 76.8C2033.72 76.8 2049.86 80.2667 2063.73 87.2C2077.86 93.8667 2088.79 103.6 2096.52 116.4C2104.26 128.933 2108.12 144.133 2108.12 162V212.8C2108.12 218.667 2108.92 223.2 2110.52 226.4C2112.39 229.6 2117.06 231.2 2124.52 231.2V280C2111.72 280 2101.06 279.2 2092.52 277.6C2083.99 276 2076.79 273.067 2070.93 268.8C2065.06 264.267 2059.73 257.733 2054.93 249.2C2046.13 260.933 2035.72 269.867 2023.72 276C2011.72 281.867 1997.59 284.8 1981.32 284.8ZM2002.93 237.6C2010.66 237.6 2017.73 236 2024.12 232.8C2030.79 229.333 2036.12 224.533 2040.12 218.4C2044.12 212.267 2046.12 205.333 2046.12 197.6V195.2H2008.12C2002.79 195.2 1997.86 196 1993.32 197.6C1988.79 198.933 1985.19 201.2 1982.53 204.4C1979.86 207.333 1978.53 211.467 1978.53 216.8C1978.53 224.533 1981.06 230 1986.12 233.2C1991.19 236.133 1996.79 237.6 2002.93 237.6Z" fill="#D9D9D9"/>
</svg>
